<svg width="354" height="17" viewBox="0 0 354 17" fill="none" xmlns="http://www.w3.org/2000/svg">
<path fill-rule="evenodd" clip-rule="evenodd" d="M62.9267 6.0424C59.0624 6.76559 55.4357 7.81261 52.1651 9.28059C51.8089 9.4425 51.7009 9.66912 51.6685 9.76627C51.6145 9.93897 51.6362 10.101 51.7225 10.2521C51.7765 10.3492 51.8629 10.468 52.0464 10.5435C52.1759 10.5975 52.5105 10.6406 52.9531 10.6298C53.7086 10.619 54.8744 10.5327 55.4357 10.5327C57.3571 10.5543 59.2783 10.5434 61.1997 10.5758C67.3199 10.6838 68.3884 10.7701 76.2572 10.7053C85.4429 10.6298 94.6502 10.5003 103.847 10.306C74.6166 11.9251 45.4297 13.814 16.3939 15.5734C16.0701 15.595 15.8218 15.8758 15.8434 16.1996C15.8542 16.5342 16.1456 16.7825 16.4694 16.7609C84.2231 12.6592 152.722 7.82339 220.994 7.51036C224.361 7.58592 227.718 7.66144 231.064 7.73699C251.281 8.21193 271.509 8.78405 291.705 9.66916C298.278 9.9606 304.852 10.2844 311.436 10.5866C313.379 10.673 315.333 10.7593 317.287 10.8457C318.862 10.9104 322.921 11.1479 323.493 11.1587C324.011 11.1695 324.141 10.7055 324.152 10.6839C324.184 10.5327 324.162 10.36 324.033 10.1981C324 10.1549 323.914 10.0362 323.72 9.98223C323.687 9.98223 323.536 9.96059 323.223 9.92821C306.989 8.60054 290.712 7.68306 274.402 7.10019C276.593 7.12177 278.784 7.13262 280.976 7.15421C297.868 7.28374 314.804 7.74788 331.686 7.15421C335.528 7.02468 339.382 6.87351 343.214 6.69001C345.793 6.57128 352.432 6.72241 353.371 6.44177C353.802 6.32304 353.9 6.02077 353.91 5.86966C353.921 5.69695 353.889 5.50266 353.695 5.32996C353.608 5.24361 353.338 5.10335 352.831 4.99541C336.262 1.40102 316.876 2.41558 300.005 1.41174C254.185 -1.34073 208.526 0.494326 162.717 2.16739C123.179 3.61379 83.6403 3.68932 44.1235 5.65383C29.6596 6.36623 14.7424 5.54594 0.483599 8.26602C0.15978 8.33079 -0.0453735 8.6329 0.00859631 8.95672C0.0733601 9.28054 0.386412 9.49649 0.710231 9.43172C14.9043 6.72243 29.7676 7.55354 44.1776 6.84114C50.4273 6.52812 56.677 6.26907 62.9267 6.0424ZM185.168 6.84114C160.958 6.46335 136.747 6.26901 112.514 6.38775C95.8915 6.4633 71.6698 3.30079 55.1551 9.34542C55.2738 9.34542 55.3709 9.34542 55.4572 9.34542C57.3785 9.36701 59.3 9.34533 61.2213 9.38851C67.3307 9.49645 68.3992 9.58279 76.2464 9.51803C96.3124 9.34533 116.432 8.91364 136.488 8.24441C152.733 7.70471 168.956 7.21893 185.168 6.84114ZM348.945 5.44868C333.283 2.707 315.527 3.52746 299.93 2.59918C254.153 -0.153287 208.527 1.68164 162.76 3.35471C142.306 4.11028 121.862 4.48805 101.429 4.95219C105.347 5.10331 109.093 5.21123 112.514 5.20043C147.152 5.02773 181.779 5.49195 216.417 6.22594C237.929 5.90212 259.442 5.78339 280.986 5.95609C297.868 6.09641 314.772 6.54977 331.653 5.9669C335.485 5.83737 339.328 5.6862 343.16 5.5027C344.466 5.44873 346.83 5.45947 348.945 5.44868Z" fill="#ADFF00"/>
</svg>
