<svg width="32" height="24" viewBox="0 0 32 24" fill="none" xmlns="http://www.w3.org/2000/svg">
<rect x="2.25" y="2.25" width="27.5" height="19.5" rx="1.75" fill="white" stroke="#F5F5F5" stroke-width="0.5"/>
<mask id="mask0_279_2498" style="mask-type:luminance" maskUnits="userSpaceOnUse" x="2" y="2" width="28" height="20">
<rect x="2.25" y="2.25" width="27.5" height="19.5" rx="1.75" fill="white" stroke="white" stroke-width="0.5"/>
</mask>
<g mask="url(#mask0_279_2498)">
<rect x="22" y="2" width="8" height="20" fill="#FF3131"/>
<path fill-rule="evenodd" clip-rule="evenodd" d="M2 22H10V2H2V22Z" fill="#FF3131"/>
<path fill-rule="evenodd" clip-rule="evenodd" d="M18.112 11.2215C17.8788 11.4547 17.4847 11.2439 17.5494 10.9205L18.0002 8.66667L16.6668 9.33333L16.0002 7.33333L15.3335 9.33333L14.0002 8.66667L14.4509 10.9205C14.5156 11.2439 14.1216 11.4547 13.8884 11.2215L13.5692 10.9024C13.439 10.7722 13.228 10.7722 13.0978 10.9024L12.6668 11.3333L11.3335 10.6667L12.0002 12L11.5692 12.431C11.439 12.5611 11.439 12.7722 11.5692 12.9024L13.3335 14.6667H15.3335L15.6668 16.6667H16.3335L16.6668 14.6667H18.6668L20.4311 12.9024C20.5613 12.7722 20.5613 12.5611 20.4311 12.431L20.0002 12L20.6668 10.6667L19.3335 11.3333L18.9025 10.9024C18.7724 10.7722 18.5613 10.7722 18.4311 10.9024L18.112 11.2215Z" fill="#FF3131"/>
</g>
</svg>
