<svg width="40" height="40" viewBox="0 0 40 40" fill="none" xmlns="http://www.w3.org/2000/svg">
<path d="M6.25 10H33.75V12.5H6.25V10ZM6.25 27.5H33.75V30H6.25V27.5ZM29.5275 23.6425L29.31 22.555H26.8738L26.4862 23.6337L24.5338 23.6375C25.79 20.63 26.7213 18.4 27.3288 16.9525C27.4875 16.5738 27.77 16.3813 28.185 16.3838C28.5025 16.3863 29.0212 16.3863 29.7412 16.3838L31.25 23.64L29.5275 23.6438V23.6425ZM27.4225 21.065H28.9925L28.405 18.34L27.4225 21.065ZM14.84 16.3825L16.8025 16.385L13.7687 23.6425L11.7812 23.6413C11.11 21.0538 10.6163 19.1337 10.3013 17.885C10.205 17.5012 10.0137 17.2337 9.64375 17.1075C9.315 16.995 8.7675 16.82 8 16.5838V16.3838H11.1363C11.6788 16.3838 11.995 16.6462 12.0975 17.1837L12.8725 21.295L14.84 16.3825ZM19.4987 16.385L17.9488 23.6413L16.08 23.6388L17.63 16.3825L19.4987 16.385ZM23.2887 16.25C23.8462 16.25 24.5513 16.4225 24.9562 16.5838L24.6287 18.0887C24.2625 17.9412 23.66 17.7425 23.1537 17.7513C22.4163 17.7625 21.9613 18.0712 21.9613 18.3675C21.9613 18.8475 22.7512 19.09 23.5662 19.6163C24.495 20.2162 24.6162 20.7537 24.605 21.3387C24.5925 22.5525 23.5662 23.75 21.4 23.75C20.4113 23.735 20.055 23.6525 19.25 23.3675L19.59 21.7975C20.41 22.14 20.7587 22.2487 21.4587 22.2487C22.1025 22.2487 22.6537 21.99 22.6588 21.5387C22.6612 21.2175 22.465 21.0588 21.7438 20.6613C21.0225 20.265 20.0125 19.7162 20.025 18.6112C20.0413 17.1988 21.3837 16.25 23.2875 16.25H23.2887Z" fill="#FE9A22"/>
</svg>
