<svg width="24" height="24" viewBox="0 0 24 24" fill="none" xmlns="http://www.w3.org/2000/svg">
<path d="M7.59725 6.82476C8.95817 5.6455 10.6992 4.9975 12.5 5.00001C16.6423 5.00001 20 8.35776 20 12.5C20 14.102 19.4975 15.587 18.6425 16.805L16.25 12.5H18.5C18.5001 11.3237 18.1544 10.1734 17.506 9.19195C16.8576 8.21054 15.9349 7.44138 14.8529 6.9801C13.7708 6.51882 12.577 6.38578 11.42 6.59752C10.2629 6.80926 9.19359 7.35643 8.345 8.17101L7.59725 6.82476ZM17.4028 18.1753C16.0418 19.3545 14.3008 20.0025 12.5 20C8.35775 20 5 16.6423 5 12.5C5 10.898 5.5025 9.41301 6.3575 8.19501L8.75 12.5H6.5C6.4999 13.6763 6.84556 14.8267 7.494 15.8081C8.14244 16.7895 9.06505 17.5586 10.1471 18.0199C11.2292 18.4812 12.423 18.6142 13.58 18.4025C14.7371 18.1908 15.8064 17.6436 16.655 16.829L17.4028 18.1753Z" fill="black"/>
</svg>
