<svg width="32" height="24" viewBox="0 0 32 24" fill="none" xmlns="http://www.w3.org/2000/svg">
<rect x="2" y="2" width="28" height="20" rx="2" fill="white"/>
<mask id="mask0_279_2480" style="mask-type:luminance" maskUnits="userSpaceOnUse" x="2" y="2" width="28" height="20">
<rect x="2" y="2" width="28" height="20" rx="2" fill="white"/>
</mask>
<g mask="url(#mask0_279_2480)">
<path fill-rule="evenodd" clip-rule="evenodd" d="M30 2H2V3.33333H30V2ZM30 4.66667H2V6H30V4.66667ZM2 7.33333H30V8.66667H2V7.33333ZM30 10H2V11.3333H30V10ZM2 12.6667H30V14H2V12.6667ZM30 15.3333H2V16.6667H30V15.3333ZM2 18H30V19.3333H2V18ZM30 20.6667H2V22H30V20.6667Z" fill="#D02F44"/>
<rect x="2" y="2" width="12" height="9.33333" fill="#46467F"/>
<g filter="url(#filter0_d_279_2480)">
<path fill-rule="evenodd" clip-rule="evenodd" d="M4.66683 4C4.66683 4.36819 4.36835 4.66667 4.00016 4.66667C3.63197 4.66667 3.3335 4.36819 3.3335 4C3.3335 3.63181 3.63197 3.33333 4.00016 3.33333C4.36835 3.33333 4.66683 3.63181 4.66683 4ZM7.3335 4C7.3335 4.36819 7.03502 4.66667 6.66683 4.66667C6.29864 4.66667 6.00016 4.36819 6.00016 4C6.00016 3.63181 6.29864 3.33333 6.66683 3.33333C7.03502 3.33333 7.3335 3.63181 7.3335 4ZM9.3335 4.66667C9.70169 4.66667 10.0002 4.36819 10.0002 4C10.0002 3.63181 9.70169 3.33333 9.3335 3.33333C8.96531 3.33333 8.66683 3.63181 8.66683 4C8.66683 4.36819 8.96531 4.66667 9.3335 4.66667ZM12.6668 4C12.6668 4.36819 12.3684 4.66667 12.0002 4.66667C11.632 4.66667 11.3335 4.36819 11.3335 4C11.3335 3.63181 11.632 3.33333 12.0002 3.33333C12.3684 3.33333 12.6668 3.63181 12.6668 4ZM5.3335 6C5.70169 6 6.00016 5.70152 6.00016 5.33333C6.00016 4.96514 5.70169 4.66667 5.3335 4.66667C4.96531 4.66667 4.66683 4.96514 4.66683 5.33333C4.66683 5.70152 4.96531 6 5.3335 6ZM8.66683 5.33333C8.66683 5.70152 8.36835 6 8.00016 6C7.63197 6 7.3335 5.70152 7.3335 5.33333C7.3335 4.96514 7.63197 4.66667 8.00016 4.66667C8.36835 4.66667 8.66683 4.96514 8.66683 5.33333ZM10.6668 6C11.035 6 11.3335 5.70152 11.3335 5.33333C11.3335 4.96514 11.035 4.66667 10.6668 4.66667C10.2986 4.66667 10.0002 4.96514 10.0002 5.33333C10.0002 5.70152 10.2986 6 10.6668 6ZM12.6668 6.66667C12.6668 7.03486 12.3684 7.33333 12.0002 7.33333C11.632 7.33333 11.3335 7.03486 11.3335 6.66667C11.3335 6.29848 11.632 6 12.0002 6C12.3684 6 12.6668 6.29848 12.6668 6.66667ZM9.3335 7.33333C9.70169 7.33333 10.0002 7.03486 10.0002 6.66667C10.0002 6.29848 9.70169 6 9.3335 6C8.96531 6 8.66683 6.29848 8.66683 6.66667C8.66683 7.03486 8.96531 7.33333 9.3335 7.33333ZM7.3335 6.66667C7.3335 7.03486 7.03502 7.33333 6.66683 7.33333C6.29864 7.33333 6.00016 7.03486 6.00016 6.66667C6.00016 6.29848 6.29864 6 6.66683 6C7.03502 6 7.3335 6.29848 7.3335 6.66667ZM4.00016 7.33333C4.36835 7.33333 4.66683 7.03486 4.66683 6.66667C4.66683 6.29848 4.36835 6 4.00016 6C3.63197 6 3.3335 6.29848 3.3335 6.66667C3.3335 7.03486 3.63197 7.33333 4.00016 7.33333ZM6.00016 8C6.00016 8.36819 5.70169 8.66667 5.3335 8.66667C4.96531 8.66667 4.66683 8.36819 4.66683 8C4.66683 7.63181 4.96531 7.33333 5.3335 7.33333C5.70169 7.33333 6.00016 7.63181 6.00016 8ZM8.00016 8.66667C8.36835 8.66667 8.66683 8.36819 8.66683 8C8.66683 7.63181 8.36835 7.33333 8.00016 7.33333C7.63197 7.33333 7.3335 7.63181 7.3335 8C7.3335 8.36819 7.63197 8.66667 8.00016 8.66667ZM11.3335 8C11.3335 8.36819 11.035 8.66667 10.6668 8.66667C10.2986 8.66667 10.0002 8.36819 10.0002 8C10.0002 7.63181 10.2986 7.33333 10.6668 7.33333C11.035 7.33333 11.3335 7.63181 11.3335 8ZM12.0002 10C12.3684 10 12.6668 9.70152 12.6668 9.33333C12.6668 8.96514 12.3684 8.66667 12.0002 8.66667C11.632 8.66667 11.3335 8.96514 11.3335 9.33333C11.3335 9.70152 11.632 10 12.0002 10ZM10.0002 9.33333C10.0002 9.70152 9.70169 10 9.3335 10C8.96531 10 8.66683 9.70152 8.66683 9.33333C8.66683 8.96514 8.96531 8.66667 9.3335 8.66667C9.70169 8.66667 10.0002 8.96514 10.0002 9.33333ZM6.66683 10C7.03502 10 7.3335 9.70152 7.3335 9.33333C7.3335 8.96514 7.03502 8.66667 6.66683 8.66667C6.29864 8.66667 6.00016 8.96514 6.00016 9.33333C6.00016 9.70152 6.29864 10 6.66683 10ZM4.66683 9.33333C4.66683 9.70152 4.36835 10 4.00016 10C3.63197 10 3.3335 9.70152 3.3335 9.33333C3.3335 8.96514 3.63197 8.66667 4.00016 8.66667C4.36835 8.66667 4.66683 8.96514 4.66683 9.33333Z" fill="url(#paint0_linear_279_2480)"/>
</g>
</g>
<defs>
<filter id="filter0_d_279_2480" x="3.3335" y="3.33333" width="9.3335" height="7.66667" filterUnits="userSpaceOnUse" color-interpolation-filters="sRGB">
<feFlood flood-opacity="0" result="BackgroundImageFix"/>
<feColorMatrix in="SourceAlpha" type="matrix" values="0 0 0 0 0 0 0 0 0 0 0 0 0 0 0 0 0 0 127 0" result="hardAlpha"/>
<feOffset dy="1"/>
<feColorMatrix type="matrix" values="0 0 0 0 0 0 0 0 0 0 0 0 0 0 0 0 0 0 0.06 0"/>
<feBlend mode="normal" in2="BackgroundImageFix" result="effect1_dropShadow_279_2480"/>
<feBlend mode="normal" in="SourceGraphic" in2="effect1_dropShadow_279_2480" result="shape"/>
</filter>
<linearGradient id="paint0_linear_279_2480" x1="3.3335" y1="3.33333" x2="3.3335" y2="10" gradientUnits="userSpaceOnUse">
<stop stop-color="white"/>
<stop offset="1" stop-color="#F0F0F0"/>
</linearGradient>
</defs>
</svg>
